HIERARCHY
ROOT hip
{
	OFFSET 0.000000 0.000000 0.000000 
	CHANNELS 6 Xposition Yposition Zposition Xrotation Zrotation Yrotation
	JOINT abdomen
	{
		OFFSET 0.000000 3.402643 0.000000 
		CHANNELS 3 Xrotation Zrotation Yrotation
		JOINT chest
		{
			OFFSET 0.000000 8.438565 -0.680529 
			CHANNELS 3 Xrotation Zrotation Yrotation
			JOINT neck
			{
				OFFSET 0.000000 10.207942 -0.272212 
				CHANNELS 3 Xrotation Zrotation Yrotation
				JOINT head
				{
					OFFSET 0.000000 3.130431 0.000000 
					CHANNELS 3 Xrotation Zrotation Yrotation
					End Site
					{
						OFFSET 0.000000 3.130435 0.000000 
					}
				}
			}
			JOINT lCollar
			{
				OFFSET 3.470700 6.669187 -0.816635 
				CHANNELS 3 Yrotation Zrotation Xrotation
				JOINT lShldr
				{
					OFFSET 3.198488 0.000000 0.000000 
					CHANNELS 3 Zrotation Yrotation Xrotation
					JOINT lForeArm
					{
						OFFSET 10.139888 0.000000 0.000000 
						CHANNELS 3 Yrotation Zrotation Xrotation
						JOINT lHand
						{
							OFFSET 8.370511 0.000000 0.000000 
							CHANNELS 3 Zrotation Yrotation Xrotation
							End Site
							{
								OFFSET 4.083176 0.000000 0.000000 
							}
						}
					}
				}
			}
			JOINT rCollar
			{
				OFFSET -3.470700 6.669187 -0.816635 
				CHANNELS 3 Yrotation Zrotation Xrotation
				JOINT rShldr
				{
					OFFSET -3.198488 0.000000 0.000000 
					CHANNELS 3 Zrotation Yrotation Xrotation
					JOINT rForeArm
					{
						OFFSET -10.139888 0.000000 0.000000 
						CHANNELS 3 Yrotation Zrotation Xrotation
						JOINT rHand
						{
							OFFSET -8.370511 0.000000 0.000000 
							CHANNELS 3 Zrotation Yrotation Xrotation
							End Site
							{
								OFFSET -4.083176 0.000000 0.000000 
							}
						}
					}
				}
			}
		}
	}
	JOINT lThigh
	{
		OFFSET 5.308129 -1.633274 1.361059 
		CHANNELS 3 Xrotation Zrotation Yrotation
		JOINT lShin
		{
			OFFSET -2.041588 -20.007561 0.000000 
			CHANNELS 3 Xrotation Zrotation Yrotation
			JOINT lFoot
			{
				OFFSET 0.000000 -19.190928 -1.224953 
				CHANNELS 3 Xrotation Yrotation Zrotation
				End Site
				{
					OFFSET 0.000000 -2.449906 4.627600 
				}
			}
		}
	}
	JOINT rThigh
	{
		OFFSET -5.308129 -1.633274 1.361059 
		CHANNELS 3 Xrotation Zrotation Yrotation
		JOINT rShin
		{
			OFFSET 2.041588 -20.007561 0.000000 
			CHANNELS 3 Xrotation Zrotation Yrotation
			JOINT rFoot
			{
				OFFSET 0.000000 -19.190928 -1.224953 
				CHANNELS 3 Xrotation Yrotation Zrotation
				End Site
				{
					OFFSET 0.000000 -2.449906 4.627600 
				}
			}
		}
	}
}
MOTION
Frames: 13
Frame Time: 0.066667
-0.054391 50.930779 3.779388 5.983611 0.195238 2.305610 -0.907500 1.659612 -0.825557 3.170562 0.413939 -6.538830 0.042751 0.359102 -0.204164 4.601790 -1.017530 3.147050 -7.220732 -6.809920 -7.805324 -69.911514 -16.292000 9.884584 -30.286831 0.001165 34.526901 -12.666131 -12.662926 0.331903 -3.823218 3.579455 -1.197800 71.229912 -22.176136 -9.132231 8.934833 0.116349 27.588573 6.341005 -1.810122 0.088928 31.804970 -0.657304 -1.730517 2.618905 -2.443246 2.231949 21.055721 1.594669 -3.021200 -29.232765 -0.871606 -4.452437 -1.019926 1.464713 -1.719640 24.820795 -1.952116 -4.257692 
-0.062393 51.701839 3.779388 6.780290 0.351810 1.598240 -2.588980 1.606370 -0.606371 4.232220 0.109319 -4.063770 -0.004632 0.082528 -0.092734 3.695360 -0.754448 1.973470 -3.744470 -8.700970 -4.904962 -70.886101 -17.357700 9.929008 -27.660284 0.001165 35.161800 -11.806924 -10.875732 0.285265 2.176580 6.577632 -4.384020 70.634499 -18.152660 -9.667048 10.032651 0.116349 26.305099 7.008678 -1.223352 0.074780 -0.730503 0.428468 1.743937 54.347294 -4.835621 -1.074371 9.137504 5.289661 -3.020902 -30.705618 -0.868734 -4.818579 21.605469 1.171606 -0.034239 -1.272151 -1.886707 -7.032578 
-0.047208 53.238346 3.779388 7.296476 0.438710 -0.384793 -4.810570 0.717793 -0.479063 6.622445 -0.720518 0.217079 -0.107271 -0.166920 0.020543 3.943000 -0.396601 0.249927 0.513674 -7.977970 -1.134083 -74.425400 -13.281600 5.881170 -21.836599 0.001165 35.306301 -10.841126 -7.695415 0.267681 9.603888 7.048002 -9.243760 73.807510 -11.406500 -7.985020 13.655500 0.116349 26.980301 7.962735 -0.329182 -0.250100 -25.456684 1.331627 2.501022 73.946716 -3.461740 -1.227959 6.551764 9.393176 -2.179612 -21.037874 -0.078504 -4.612796 18.826389 1.075741 0.301105 -8.326876 -0.739504 -7.905264 
-0.062747 54.142269 3.779388 8.028471 0.438727 -2.183500 -5.438199 0.207261 -0.484243 7.701901 -0.949968 3.168510 -0.088913 -0.029736 0.069249 4.540220 -0.260280 -2.275510 2.874230 -2.376980 2.091650 -76.070900 -2.581600 0.745457 -16.126499 0.001165 34.865601 -9.942211 -3.643180 0.247649 14.103100 1.174088 -11.539000 76.153893 -2.965070 -5.198220 20.489672 0.116349 29.013399 9.230290 0.745239 0.228837 -38.033737 1.956252 2.239554 62.350563 -2.866381 -0.239753 8.452842 4.334472 0.655780 -7.289600 0.366645 -3.843508 1.867966 1.000802 -0.741712 -5.670934 1.476608 -7.036381 
-0.146166 53.870789 3.779388 7.389349 0.351858 -2.723740 -4.885140 -0.152601 -0.086374 6.676330 -0.990823 5.642550 -0.081509 0.384691 0.167481 4.107840 0.611224 -3.806190 4.723633 0.303047 3.157360 -76.516335 9.078669 -2.237584 -11.194500 0.001165 33.690437 -8.229190 -0.264951 0.350273 13.708600 -2.341550 -11.484700 76.444801 4.952410 -2.805780 23.664574 0.116349 31.163200 11.073913 3.243204 0.139668 -39.737446 0.943351 2.634595 37.038799 -0.007947 0.242163 3.952889 0.500314 0.637011 -2.884728 0.294582 -4.572917 14.900056 0.339312 0.546077 -12.464971 2.812716 -5.142097 
-0.144737 52.587337 3.779388 7.077470 0.195307 -3.103870 -2.569706 -0.587081 0.746072 4.264240 -0.920307 6.794440 -0.065579 0.873253 0.332926 4.152214 1.027240 -4.007210 6.108605 0.940097 2.701448 -74.593803 19.522924 -4.328449 -8.674590 0.001165 31.673500 -6.320746 1.746516 0.413022 11.237500 -2.078610 -9.506420 73.197998 10.552875 3.473820 25.370012 0.116349 33.112099 12.832194 7.515890 0.455804 -33.109238 0.672845 2.248022 -2.150151 -1.284785 1.135497 8.195504 0.781460 0.930233 6.604897 -0.429543 -3.435708 18.946196 0.458062 0.790267 -11.644512 2.760721 -2.794761 
-0.032789 51.679874 3.779388 5.315712 0.000000 -2.980694 -0.920928 -1.497272 1.052490 3.234412 -0.638850 7.299640 0.407942 -0.012259 0.125621 4.790095 1.457380 -3.998490 5.549260 -3.365490 1.062321 -70.361504 22.981373 -6.453584 -9.202444 -0.116349 29.477793 -4.281356 2.351367 0.271411 9.001228 2.655120 -4.562235 69.810707 14.498660 7.158091 26.056526 -0.001165 34.045898 13.209469 13.282380 0.089536 -34.634613 1.663542 5.230479 -2.874681 -1.354475 2.571830 22.279716 3.499624 -0.699431 20.209835 -0.809652 1.118457 16.397682 5.239849 0.531933 4.287104 -0.005791 -1.855253 
-0.054391 50.930779 3.779388 5.501198 -0.195238 -2.305610 -0.907500 -2.142024 1.066763 3.411768 -0.413939 6.538830 0.042751 -0.359102 0.204164 4.601790 1.017530 -3.147050 3.099600 -8.162370 -1.197800 -69.300285 21.187300 -7.691476 -10.382070 -0.116349 27.829779 -2.964121 2.533740 0.088928 5.930410 6.809920 -1.510628 68.946701 16.533205 9.626520 25.462721 -0.001165 34.768108 12.183719 15.557400 0.331903 -28.754253 0.755188 4.375766 -1.009826 -1.458228 1.758046 24.688309 2.019926 4.264540 32.704803 0.557644 1.612639 2.529472 2.394109 -2.208158 20.776360 -1.529196 3.034380 
-0.062393 51.701839 3.779388 6.780290 -0.351810 -1.598240 -2.588980 -1.606370 0.847577 4.232220 -0.109319 4.063770 -0.004632 -0.082528 0.092734 3.695360 0.754448 -1.973470 -3.382610 -9.230900 -4.384020 -70.634499 16.457001 -8.214620 -11.962300 -0.116349 26.305099 -4.355410 1.223352 0.074780 2.220852 8.700970 0.705023 70.886101 16.121653 10.703200 23.801001 -0.001165 35.403008 10.842098 13.529000 0.285265 -30.703316 1.151009 4.769948 21.616037 -1.309091 -0.028890 -1.231163 1.831893 6.845827 -0.739149 -0.525025 -1.818685 54.363552 4.687464 1.070386 9.172863 -5.207838 3.084680 
-0.047208 53.238346 3.779388 7.055270 -0.438710 0.384793 -4.569364 -0.717793 0.479063 5.657620 0.720518 -0.458285 -0.107271 0.166920 -0.020543 3.943000 0.396601 -0.249927 -10.086300 -6.565590 -9.243760 -73.083900 11.406500 -7.985020 -17.755999 -0.116349 26.980301 -8.686354 -1.359260 -0.250100 -1.313670 7.736764 2.069029 74.425400 9.326259 7.569613 21.112984 -0.001165 35.306301 9.635085 8.660240 0.267681 -20.897928 0.020024 4.532423 18.853041 -1.135874 -0.291826 -8.274943 0.771707 7.956114 -25.128605 -1.376650 -2.522182 73.947456 3.378500 1.186994 6.482924 -9.345399 2.210355 
-0.062747 54.142269 3.779388 6.822440 -0.438727 2.183500 -4.714581 0.033945 0.001831 6.978283 0.949968 -3.168510 -0.088913 0.029736 -0.069249 4.540220 0.260280 2.275510 -14.103100 0.031943 -11.539000 -76.636299 2.965070 -5.714349 -27.725838 -0.116349 29.013399 -11.883558 -5.810566 0.228837 -2.874230 2.376980 2.574062 76.070900 -4.814778 2.675105 15.644087 -0.001165 34.865601 8.494974 2.678356 0.247649 -5.750584 -0.068204 3.706347 1.838004 -0.992450 0.704012 -6.252903 -1.350606 6.723120 -36.764957 -1.611116 -2.217723 62.390575 2.803816 0.225822 8.343335 -4.624382 -0.687400 
-0.146166 53.870789 3.779388 5.942111 -0.351858 2.723740 -3.437904 0.393807 -0.396038 5.711505 0.990823 -5.642550 -0.081509 -0.384691 -0.167481 4.107840 -0.611224 3.806190 -13.708600 2.341550 -11.484700 -76.444801 -4.952410 -2.547715 -31.865551 -0.116349 31.645611 -12.762356 -9.514564 0.139668 -3.949440 -0.303047 2.674948 75.069115 -17.845882 -1.945802 10.712088 -0.001165 33.449230 7.987984 -0.941079 0.350273 -1.522238 0.247741 4.483660 14.987247 -0.352648 -0.560945 -12.466013 -2.716281 4.674154 -37.941704 -0.523537 -2.521068 37.077835 -0.004409 -0.244420 3.539016 -0.820705 -0.794870 
-0.144737 52.587337 3.779388 5.389027 -0.195307 3.103870 -1.363676 0.587081 -0.746072 3.540622 0.920307 -6.794440 -0.065579 -0.149635 -0.332926 4.875833 -1.027240 4.007210 -9.904170 0.530223 -9.506420 -73.197998 -10.068400 3.473820 -32.364998 -0.116349 32.629684 -13.555813 -12.098807 0.455804 -4.560220 -0.457685 1.669190 73.628990 -22.593725 -6.134900 8.915796 -0.001165 31.673500 7.526777 -1.987722 0.413022 8.712742 0.925539 3.315778 18.955389 -0.467139 -0.801753 -12.081754 -2.643082 2.386326 -31.304344 -0.205673 -2.097641 -2.062192 1.296254 -1.151119 7.956662 -0.989662 -1.269012 
